solid OpenSCAD_Model
  facet normal 0.999507 0.0314041 0
    outer loop
      vertex 7 0 14
      vertex 6.98619 0.439534 0
      vertex 6.98619 0.439534 14
    endloop
  endfacet
  facet normal 0.999507 0.0314041 0
    outer loop
      vertex 6.98619 0.439534 0
      vertex 7 0 14
      vertex 7 0 0
    endloop
  endfacet
  facet normal 0.995561 0.0941214 0
    outer loop
      vertex 6.98619 0.439534 14
      vertex 6.9448 0.877333 0
      vertex 6.9448 0.877333 14
    endloop
  endfacet
  facet normal 0.995561 0.0941214 0
    outer loop
      vertex 6.9448 0.877333 0
      vertex 6.98619 0.439534 14
      vertex 6.98619 0.439534 0
    endloop
  endfacet
  facet normal 0.987689 0.15643 0
    outer loop
      vertex 6.9448 0.877333 14
      vertex 6.87601 1.31167 0
      vertex 6.87601 1.31167 14
    endloop
  endfacet
  facet normal 0.987689 0.15643 0
    outer loop
      vertex 6.87601 1.31167 0
      vertex 6.9448 0.877333 14
      vertex 6.9448 0.877333 0
    endloop
  endfacet
  facet normal 0.975916 0.218146 0
    outer loop
      vertex 6.87601 1.31167 14
      vertex 6.78008 1.74083 0
      vertex 6.78008 1.74083 14
    endloop
  endfacet
  facet normal 0.975916 0.218146 0
    outer loop
      vertex 6.78008 1.74083 0
      vertex 6.87601 1.31167 14
      vertex 6.87601 1.31167 0
    endloop
  endfacet
  facet normal 0.960298 0.278977 0
    outer loop
      vertex 6.78008 1.74083 14
      vertex 6.6574 2.16312 0
      vertex 6.6574 2.16312 14
    endloop
  endfacet
  facet normal 0.960298 0.278977 0
    outer loop
      vertex 6.6574 2.16312 0
      vertex 6.78008 1.74083 14
      vertex 6.78008 1.74083 0
    endloop
  endfacet
  facet normal 0.94088 0.33874 0
    outer loop
      vertex 6.6574 2.16312 14
      vertex 6.50844 2.57687 0
      vertex 6.50844 2.57687 14
    endloop
  endfacet
  facet normal 0.94088 0.33874 0
    outer loop
      vertex 6.50844 2.57687 0
      vertex 6.6574 2.16312 14
      vertex 6.6574 2.16312 0
    endloop
  endfacet
  facet normal 0.917754 0.39715 0
    outer loop
      vertex 6.50844 2.57687 14
      vertex 6.33379 2.98046 0
      vertex 6.33379 2.98046 14
    endloop
  endfacet
  facet normal 0.917754 0.39715 0
    outer loop
      vertex 6.33379 2.98046 0
      vertex 6.50844 2.57687 14
      vertex 6.50844 2.57687 0
    endloop
  endfacet
  facet normal 0.891009 0.453986 0
    outer loop
      vertex 6.33379 2.98046 14
      vertex 6.13415 3.37228 0
      vertex 6.13415 3.37228 14
    endloop
  endfacet
  facet normal 0.891009 0.453986 0
    outer loop
      vertex 6.13415 3.37228 0
      vertex 6.33379 2.98046 14
      vertex 6.33379 2.98046 0
    endloop
  endfacet
  facet normal 0.860742 0.509041 0
    outer loop
      vertex 6.13415 3.37228 14
      vertex 5.9103 3.75079 0
      vertex 5.9103 3.75079 14
    endloop
  endfacet
  facet normal 0.860742 0.509041 0
    outer loop
      vertex 5.9103 3.75079 0
      vertex 6.13415 3.37228 14
      vertex 6.13415 3.37228 0
    endloop
  endfacet
  facet normal 0.827077 0.562088 0
    outer loop
      vertex 5.9103 3.75079 14
      vertex 5.66312 4.1145 0
      vertex 5.66312 4.1145 14
    endloop
  endfacet
  facet normal 0.827077 0.562088 0
    outer loop
      vertex 5.66312 4.1145 0
      vertex 5.9103 3.75079 14
      vertex 5.9103 3.75079 0
    endloop
  endfacet
  facet normal 0.79015 0.612914 0
    outer loop
      vertex 5.66312 4.1145 14
      vertex 5.39359 4.46197 0
      vertex 5.39359 4.46197 14
    endloop
  endfacet
  facet normal 0.79015 0.612914 0
    outer loop
      vertex 5.39359 4.46197 0
      vertex 5.66312 4.1145 14
      vertex 5.66312 4.1145 0
    endloop
  endfacet
  facet normal 0.750112 0.661311 0
    outer loop
      vertex 5.39359 4.46197 14
      vertex 5.10278 4.79183 0
      vertex 5.10278 4.79183 14
    endloop
  endfacet
  facet normal 0.750112 0.661311 0
    outer loop
      vertex 5.10278 4.79183 0
      vertex 5.39359 4.46197 14
      vertex 5.39359 4.46197 0
    endloop
  endfacet
  facet normal 0.707107 0.707107 0
    outer loop
      vertex 5.10278 4.79183 14
      vertex 4.79183 5.10278 0
      vertex 4.79183 5.10278 14
    endloop
  endfacet
  facet normal 0.707107 0.707107 0
    outer loop
      vertex 4.79183 5.10278 0
      vertex 5.10278 4.79183 14
      vertex 5.10278 4.79183 0
    endloop
  endfacet
  facet normal 0.661311 0.750112 -0
    outer loop
      vertex 4.79183 5.10278 0
      vertex 4.46197 5.39359 14
      vertex 4.79183 5.10278 14
    endloop
  endfacet
  facet normal 0.661311 0.750112 0
    outer loop
      vertex 4.46197 5.39359 14
      vertex 4.79183 5.10278 0
      vertex 4.46197 5.39359 0
    endloop
  endfacet
  facet normal 0.612914 0.79015 -0
    outer loop
      vertex 4.46197 5.39359 0
      vertex 4.1145 5.66312 14
      vertex 4.46197 5.39359 14
    endloop
  endfacet
  facet normal 0.612914 0.79015 0
    outer loop
      vertex 4.1145 5.66312 14
      vertex 4.46197 5.39359 0
      vertex 4.1145 5.66312 0
    endloop
  endfacet
  facet normal 0.562088 0.827077 -0
    outer loop
      vertex 4.1145 5.66312 0
      vertex 3.75079 5.9103 14
      vertex 4.1145 5.66312 14
    endloop
  endfacet
  facet normal 0.562088 0.827077 0
    outer loop
      vertex 3.75079 5.9103 14
      vertex 4.1145 5.66312 0
      vertex 3.75079 5.9103 0
    endloop
  endfacet
  facet normal 0.509041 0.860742 -0
    outer loop
      vertex 3.75079 5.9103 0
      vertex 3.37228 6.13415 14
      vertex 3.75079 5.9103 14
    endloop
  endfacet
  facet normal 0.509041 0.860742 0
    outer loop
      vertex 3.37228 6.13415 14
      vertex 3.75079 5.9103 0
      vertex 3.37228 6.13415 0
    endloop
  endfacet
  facet normal 0.453986 0.891009 -0
    outer loop
      vertex 3.37228 6.13415 0
      vertex 2.98046 6.33379 14
      vertex 3.37228 6.13415 14
    endloop
  endfacet
  facet normal 0.453986 0.891009 0
    outer loop
      vertex 2.98046 6.33379 14
      vertex 3.37228 6.13415 0
      vertex 2.98046 6.33379 0
    endloop
  endfacet
  facet normal 0.39715 0.917754 -0
    outer loop
      vertex 2.98046 6.33379 0
      vertex 2.57687 6.50844 14
      vertex 2.98046 6.33379 14
    endloop
  endfacet
  facet normal 0.39715 0.917754 0
    outer loop
      vertex 2.57687 6.50844 14
      vertex 2.98046 6.33379 0
      vertex 2.57687 6.50844 0
    endloop
  endfacet
  facet normal 0.33874 0.94088 -0
    outer loop
      vertex 2.57687 6.50844 0
      vertex 2.16312 6.6574 14
      vertex 2.57687 6.50844 14
    endloop
  endfacet
  facet normal 0.33874 0.94088 0
    outer loop
      vertex 2.16312 6.6574 14
      vertex 2.57687 6.50844 0
      vertex 2.16312 6.6574 0
    endloop
  endfacet
  facet normal 0.278977 0.960298 -0
    outer loop
      vertex 2.16312 6.6574 0
      vertex 1.74083 6.78008 14
      vertex 2.16312 6.6574 14
    endloop
  endfacet
  facet normal 0.278977 0.960298 0
    outer loop
      vertex 1.74083 6.78008 14
      vertex 2.16312 6.6574 0
      vertex 1.74083 6.78008 0
    endloop
  endfacet
  facet normal 0.218146 0.975916 -0
    outer loop
      vertex 1.74083 6.78008 0
      vertex 1.31167 6.87601 14
      vertex 1.74083 6.78008 14
    endloop
  endfacet
  facet normal 0.218146 0.975916 0
    outer loop
      vertex 1.31167 6.87601 14
      vertex 1.74083 6.78008 0
      vertex 1.31167 6.87601 0
    endloop
  endfacet
  facet normal 0.15643 0.987689 -0
    outer loop
      vertex 1.31167 6.87601 0
      vertex 0.877333 6.9448 14
      vertex 1.31167 6.87601 14
    endloop
  endfacet
  facet normal 0.15643 0.987689 0
    outer loop
      vertex 0.877333 6.9448 14
      vertex 1.31167 6.87601 0
      vertex 0.877333 6.9448 0
    endloop
  endfacet
  facet normal 0.0941214 0.995561 -0
    outer loop
      vertex 0.877333 6.9448 0
      vertex 0.439534 6.98619 14
      vertex 0.877333 6.9448 14
    endloop
  endfacet
  facet normal 0.0941214 0.995561 0
    outer loop
      vertex 0.439534 6.98619 14
      vertex 0.877333 6.9448 0
      vertex 0.439534 6.98619 0
    endloop
  endfacet
  facet normal 0.0314041 0.999507 -0
    outer loop
      vertex 0.439534 6.98619 0
      vertex 0 7 14
      vertex 0.439534 6.98619 14
    endloop
  endfacet
  facet normal 0.0314041 0.999507 0
    outer loop
      vertex 0 7 14
      vertex 0.439534 6.98619 0
      vertex 0 7 0
    endloop
  endfacet
  facet normal -0.0314041 0.999507 0
    outer loop
      vertex 0 7 0
      vertex -0.439534 6.98619 14
      vertex 0 7 14
    endloop
  endfacet
  facet normal -0.0314041 0.999507 0
    outer loop
      vertex -0.439534 6.98619 14
      vertex 0 7 0
      vertex -0.439534 6.98619 0
    endloop
  endfacet
  facet normal -0.0941214 0.995561 0
    outer loop
      vertex -0.439534 6.98619 0
      vertex -0.877333 6.9448 14
      vertex -0.439534 6.98619 14
    endloop
  endfacet
  facet normal -0.0941214 0.995561 0
    outer loop
      vertex -0.877333 6.9448 14
      vertex -0.439534 6.98619 0
      vertex -0.877333 6.9448 0
    endloop
  endfacet
  facet normal -0.15643 0.987689 0
    outer loop
      vertex -0.877333 6.9448 0
      vertex -1.31167 6.87601 14
      vertex -0.877333 6.9448 14
    endloop
  endfacet
  facet normal -0.15643 0.987689 0
    outer loop
      vertex -1.31167 6.87601 14
      vertex -0.877333 6.9448 0
      vertex -1.31167 6.87601 0
    endloop
  endfacet
  facet normal -0.218146 0.975916 0
    outer loop
      vertex -1.31167 6.87601 0
      vertex -1.74083 6.78008 14
      vertex -1.31167 6.87601 14
    endloop
  endfacet
  facet normal -0.218146 0.975916 0
    outer loop
      vertex -1.74083 6.78008 14
      vertex -1.31167 6.87601 0
      vertex -1.74083 6.78008 0
    endloop
  endfacet
  facet normal -0.278977 0.960298 0
    outer loop
      vertex -1.74083 6.78008 0
      vertex -2.16312 6.6574 14
      vertex -1.74083 6.78008 14
    endloop
  endfacet
  facet normal -0.278977 0.960298 0
    outer loop
      vertex -2.16312 6.6574 14
      vertex -1.74083 6.78008 0
      vertex -2.16312 6.6574 0
    endloop
  endfacet
  facet normal -0.33874 0.94088 0
    outer loop
      vertex -2.16312 6.6574 0
      vertex -2.57687 6.50844 14
      vertex -2.16312 6.6574 14
    endloop
  endfacet
  facet normal -0.33874 0.94088 0
    outer loop
      vertex -2.57687 6.50844 14
      vertex -2.16312 6.6574 0
      vertex -2.57687 6.50844 0
    endloop
  endfacet
  facet normal -0.39715 0.917754 0
    outer loop
      vertex -2.57687 6.50844 0
      vertex -2.98046 6.33379 14
      vertex -2.57687 6.50844 14
    endloop
  endfacet
  facet normal -0.39715 0.917754 0
    outer loop
      vertex -2.98046 6.33379 14
      vertex -2.57687 6.50844 0
      vertex -2.98046 6.33379 0
    endloop
  endfacet
  facet normal -0.453986 0.891009 0
    outer loop
      vertex -2.98046 6.33379 0
      vertex -3.37228 6.13415 14
      vertex -2.98046 6.33379 14
    endloop
  endfacet
  facet normal -0.453986 0.891009 0
    outer loop
      vertex -3.37228 6.13415 14
      vertex -2.98046 6.33379 0
      vertex -3.37228 6.13415 0
    endloop
  endfacet
  facet normal -0.509041 0.860742 0
    outer loop
      vertex -3.37228 6.13415 0
      vertex -3.75079 5.9103 14
      vertex -3.37228 6.13415 14
    endloop
  endfacet
  facet normal -0.509041 0.860742 0
    outer loop
      vertex -3.75079 5.9103 14
      vertex -3.37228 6.13415 0
      vertex -3.75079 5.9103 0
    endloop
  endfacet
  facet normal -0.562088 0.827077 0
    outer loop
      vertex -3.75079 5.9103 0
      vertex -4.1145 5.66312 14
      vertex -3.75079 5.9103 14
    endloop
  endfacet
  facet normal -0.562088 0.827077 0
    outer loop
      vertex -4.1145 5.66312 14
      vertex -3.75079 5.9103 0
      vertex -4.1145 5.66312 0
    endloop
  endfacet
  facet normal -0.612914 0.79015 0
    outer loop
      vertex -4.1145 5.66312 0
      vertex -4.46197 5.39359 14
      vertex -4.1145 5.66312 14
    endloop
  endfacet
  facet normal -0.612914 0.79015 0
    outer loop
      vertex -4.46197 5.39359 14
      vertex -4.1145 5.66312 0
      vertex -4.46197 5.39359 0
    endloop
  endfacet
  facet normal -0.661311 0.750112 0
    outer loop
      vertex -4.46197 5.39359 0
      vertex -4.79183 5.10278 14
      vertex -4.46197 5.39359 14
    endloop
  endfacet
  facet normal -0.661311 0.750112 0
    outer loop
      vertex -4.79183 5.10278 14
      vertex -4.46197 5.39359 0
      vertex -4.79183 5.10278 0
    endloop
  endfacet
  facet normal -0.707107 0.707107 0
    outer loop
      vertex -5.10278 4.79183 0
      vertex -4.79183 5.10278 14
      vertex -4.79183 5.10278 0
    endloop
  endfacet
  facet normal -0.707107 0.707107 0
    outer loop
      vertex -4.79183 5.10278 14
      vertex -5.10278 4.79183 0
      vertex -5.10278 4.79183 14
    endloop
  endfacet
  facet normal -0.750112 0.661311 0
    outer loop
      vertex -5.39359 4.46197 0
      vertex -5.10278 4.79183 14
      vertex -5.10278 4.79183 0
    endloop
  endfacet
  facet normal -0.750112 0.661311 0
    outer loop
      vertex -5.10278 4.79183 14
      vertex -5.39359 4.46197 0
      vertex -5.39359 4.46197 14
    endloop
  endfacet
  facet normal -0.79015 0.612914 0
    outer loop
      vertex -5.66312 4.1145 0
      vertex -5.39359 4.46197 14
      vertex -5.39359 4.46197 0
    endloop
  endfacet
  facet normal -0.79015 0.612914 0
    outer loop
      vertex -5.39359 4.46197 14
      vertex -5.66312 4.1145 0
      vertex -5.66312 4.1145 14
    endloop
  endfacet
  facet normal -0.827077 0.562088 0
    outer loop
      vertex -5.9103 3.75079 0
      vertex -5.66312 4.1145 14
      vertex -5.66312 4.1145 0
    endloop
  endfacet
  facet normal -0.827077 0.562088 0
    outer loop
      vertex -5.66312 4.1145 14
      vertex -5.9103 3.75079 0
      vertex -5.9103 3.75079 14
    endloop
  endfacet
  facet normal -0.860742 0.509041 0
    outer loop
      vertex -6.13415 3.37228 0
      vertex -5.9103 3.75079 14
      vertex -5.9103 3.75079 0
    endloop
  endfacet
  facet normal -0.860742 0.509041 0
    outer loop
      vertex -5.9103 3.75079 14
      vertex -6.13415 3.37228 0
      vertex -6.13415 3.37228 14
    endloop
  endfacet
  facet normal -0.891009 0.453986 0
    outer loop
      vertex -6.33379 2.98046 0
      vertex -6.13415 3.37228 14
      vertex -6.13415 3.37228 0
    endloop
  endfacet
  facet normal -0.891009 0.453986 0
    outer loop
      vertex -6.13415 3.37228 14
      vertex -6.33379 2.98046 0
      vertex -6.33379 2.98046 14
    endloop
  endfacet
  facet normal -0.917754 0.39715 0
    outer loop
      vertex -6.50844 2.57687 0
      vertex -6.33379 2.98046 14
      vertex -6.33379 2.98046 0
    endloop
  endfacet
  facet normal -0.917754 0.39715 0
    outer loop
      vertex -6.33379 2.98046 14
      vertex -6.50844 2.57687 0
      vertex -6.50844 2.57687 14
    endloop
  endfacet
  facet normal -0.94088 0.33874 0
    outer loop
      vertex -6.6574 2.16312 0
      vertex -6.50844 2.57687 14
      vertex -6.50844 2.57687 0
    endloop
  endfacet
  facet normal -0.94088 0.33874 0
    outer loop
      vertex -6.50844 2.57687 14
      vertex -6.6574 2.16312 0
      vertex -6.6574 2.16312 14
    endloop
  endfacet
  facet normal -0.960298 0.278977 0
    outer loop
      vertex -6.78008 1.74083 0
      vertex -6.6574 2.16312 14
      vertex -6.6574 2.16312 0
    endloop
  endfacet
  facet normal -0.960298 0.278977 0
    outer loop
      vertex -6.6574 2.16312 14
      vertex -6.78008 1.74083 0
      vertex -6.78008 1.74083 14
    endloop
  endfacet
  facet normal -0.975916 0.218146 0
    outer loop
      vertex -6.87601 1.31167 0
      vertex -6.78008 1.74083 14
      vertex -6.78008 1.74083 0
    endloop
  endfacet
  facet normal -0.975916 0.218146 0
    outer loop
      vertex -6.78008 1.74083 14
      vertex -6.87601 1.31167 0
      vertex -6.87601 1.31167 14
    endloop
  endfacet
  facet normal -0.987689 0.15643 0
    outer loop
      vertex -6.9448 0.877333 0
      vertex -6.87601 1.31167 14
      vertex -6.87601 1.31167 0
    endloop
  endfacet
  facet normal -0.987689 0.15643 0
    outer loop
      vertex -6.87601 1.31167 14
      vertex -6.9448 0.877333 0
      vertex -6.9448 0.877333 14
    endloop
  endfacet
  facet normal -0.995561 0.0941214 0
    outer loop
      vertex -6.98619 0.439534 0
      vertex -6.9448 0.877333 14
      vertex -6.9448 0.877333 0
    endloop
  endfacet
  facet normal -0.995561 0.0941214 0
    outer loop
      vertex -6.9448 0.877333 14
      vertex -6.98619 0.439534 0
      vertex -6.98619 0.439534 14
    endloop
  endfacet
  facet normal -0.999507 0.0314041 0
    outer loop
      vertex -7 -0 0
      vertex -6.98619 0.439534 14
      vertex -6.98619 0.439534 0
    endloop
  endfacet
  facet normal -0.999507 0.0314041 0
    outer loop
      vertex -6.98619 0.439534 14
      vertex -7 -0 0
      vertex -7 -0 14
    endloop
  endfacet
  facet normal -0.999507 -0.0314041 0
    outer loop
      vertex -6.98619 -0.439534 0
      vertex -7 -0 14
      vertex -7 -0 0
    endloop
  endfacet
  facet normal -0.999507 -0.0314041 0
    outer loop
      vertex -7 -0 14
      vertex -6.98619 -0.439534 0
      vertex -6.98619 -0.439534 14
    endloop
  endfacet
  facet normal -0.995561 -0.0941214 0
    outer loop
      vertex -6.9448 -0.877333 0
      vertex -6.98619 -0.439534 14
      vertex -6.98619 -0.439534 0
    endloop
  endfacet
  facet normal -0.995561 -0.0941214 0
    outer loop
      vertex -6.98619 -0.439534 14
      vertex -6.9448 -0.877333 0
      vertex -6.9448 -0.877333 14
    endloop
  endfacet
  facet normal -0.987689 -0.15643 0
    outer loop
      vertex -6.87601 -1.31167 0
      vertex -6.9448 -0.877333 14
      vertex -6.9448 -0.877333 0
    endloop
  endfacet
  facet normal -0.987689 -0.15643 0
    outer loop
      vertex -6.9448 -0.877333 14
      vertex -6.87601 -1.31167 0
      vertex -6.87601 -1.31167 14
    endloop
  endfacet
  facet normal -0.975916 -0.218146 0
    outer loop
      vertex -6.78008 -1.74083 0
      vertex -6.87601 -1.31167 14
      vertex -6.87601 -1.31167 0
    endloop
  endfacet
  facet normal -0.975916 -0.218146 0
    outer loop
      vertex -6.87601 -1.31167 14
      vertex -6.78008 -1.74083 0
      vertex -6.78008 -1.74083 14
    endloop
  endfacet
  facet normal -0.960298 -0.278977 0
    outer loop
      vertex -6.6574 -2.16312 0
      vertex -6.78008 -1.74083 14
      vertex -6.78008 -1.74083 0
    endloop
  endfacet
  facet normal -0.960298 -0.278977 0
    outer loop
      vertex -6.78008 -1.74083 14
      vertex -6.6574 -2.16312 0
      vertex -6.6574 -2.16312 14
    endloop
  endfacet
  facet normal -0.94088 -0.33874 0
    outer loop
      vertex -6.50844 -2.57687 0
      vertex -6.6574 -2.16312 14
      vertex -6.6574 -2.16312 0
    endloop
  endfacet
  facet normal -0.94088 -0.33874 0
    outer loop
      vertex -6.6574 -2.16312 14
      vertex -6.50844 -2.57687 0
      vertex -6.50844 -2.57687 14
    endloop
  endfacet
  facet normal -0.917754 -0.39715 0
    outer loop
      vertex -6.33379 -2.98046 0
      vertex -6.50844 -2.57687 14
      vertex -6.50844 -2.57687 0
    endloop
  endfacet
  facet normal -0.917754 -0.39715 0
    outer loop
      vertex -6.50844 -2.57687 14
      vertex -6.33379 -2.98046 0
      vertex -6.33379 -2.98046 14
    endloop
  endfacet
  facet normal -0.891009 -0.453986 0
    outer loop
      vertex -6.13415 -3.37228 0
      vertex -6.33379 -2.98046 14
      vertex -6.33379 -2.98046 0
    endloop
  endfacet
  facet normal -0.891009 -0.453986 0
    outer loop
      vertex -6.33379 -2.98046 14
      vertex -6.13415 -3.37228 0
      vertex -6.13415 -3.37228 14
    endloop
  endfacet
  facet normal -0.860742 -0.509041 0
    outer loop
      vertex -5.9103 -3.75079 0
      vertex -6.13415 -3.37228 14
      vertex -6.13415 -3.37228 0
    endloop
  endfacet
  facet normal -0.860742 -0.509041 0
    outer loop
      vertex -6.13415 -3.37228 14
      vertex -5.9103 -3.75079 0
      vertex -5.9103 -3.75079 14
    endloop
  endfacet
  facet normal -0.827077 -0.562088 0
    outer loop
      vertex -5.66312 -4.1145 0
      vertex -5.9103 -3.75079 14
      vertex -5.9103 -3.75079 0
    endloop
  endfacet
  facet normal -0.827077 -0.562088 0
    outer loop
      vertex -5.9103 -3.75079 14
      vertex -5.66312 -4.1145 0
      vertex -5.66312 -4.1145 14
    endloop
  endfacet
  facet normal -0.79015 -0.612914 0
    outer loop
      vertex -5.39359 -4.46197 0
      vertex -5.66312 -4.1145 14
      vertex -5.66312 -4.1145 0
    endloop
  endfacet
  facet normal -0.79015 -0.612914 0
    outer loop
      vertex -5.66312 -4.1145 14
      vertex -5.39359 -4.46197 0
      vertex -5.39359 -4.46197 14
    endloop
  endfacet
  facet normal -0.750112 -0.661311 0
    outer loop
      vertex -5.10278 -4.79183 0
      vertex -5.39359 -4.46197 14
      vertex -5.39359 -4.46197 0
    endloop
  endfacet
  facet normal -0.750112 -0.661311 0
    outer loop
      vertex -5.39359 -4.46197 14
      vertex -5.10278 -4.79183 0
      vertex -5.10278 -4.79183 14
    endloop
  endfacet
  facet normal -0.707107 -0.707107 0
    outer loop
      vertex -4.79183 -5.10278 0
      vertex -5.10278 -4.79183 14
      vertex -5.10278 -4.79183 0
    endloop
  endfacet
  facet normal -0.707107 -0.707107 0
    outer loop
      vertex -5.10278 -4.79183 14
      vertex -4.79183 -5.10278 0
      vertex -4.79183 -5.10278 14
    endloop
  endfacet
  facet normal -0.661311 -0.750112 0
    outer loop
      vertex -4.79183 -5.10278 0
      vertex -4.46197 -5.39359 14
      vertex -4.79183 -5.10278 14
    endloop
  endfacet
  facet normal -0.661311 -0.750112 -0
    outer loop
      vertex -4.46197 -5.39359 14
      vertex -4.79183 -5.10278 0
      vertex -4.46197 -5.39359 0
    endloop
  endfacet
  facet normal -0.612914 -0.79015 0
    outer loop
      vertex -4.46197 -5.39359 0
      vertex -4.1145 -5.66312 14
      vertex -4.46197 -5.39359 14
    endloop
  endfacet
  facet normal -0.612914 -0.79015 -0
    outer loop
      vertex -4.1145 -5.66312 14
      vertex -4.46197 -5.39359 0
      vertex -4.1145 -5.66312 0
    endloop
  endfacet
  facet normal -0.562088 -0.827077 0
    outer loop
      vertex -4.1145 -5.66312 0
      vertex -3.75079 -5.9103 14
      vertex -4.1145 -5.66312 14
    endloop
  endfacet
  facet normal -0.562088 -0.827077 -0
    outer loop
      vertex -3.75079 -5.9103 14
      vertex -4.1145 -5.66312 0
      vertex -3.75079 -5.9103 0
    endloop
  endfacet
  facet normal -0.509041 -0.860742 0
    outer loop
      vertex -3.75079 -5.9103 0
      vertex -3.37228 -6.13415 14
      vertex -3.75079 -5.9103 14
    endloop
  endfacet
  facet normal -0.509041 -0.860742 -0
    outer loop
      vertex -3.37228 -6.13415 14
      vertex -3.75079 -5.9103 0
      vertex -3.37228 -6.13415 0
    endloop
  endfacet
  facet normal -0.453986 -0.891009 0
    outer loop
      vertex -3.37228 -6.13415 0
      vertex -2.98046 -6.33379 14
      vertex -3.37228 -6.13415 14
    endloop
  endfacet
  facet normal -0.453986 -0.891009 -0
    outer loop
      vertex -2.98046 -6.33379 14
      vertex -3.37228 -6.13415 0
      vertex -2.98046 -6.33379 0
    endloop
  endfacet
  facet normal -0.39715 -0.917754 0
    outer loop
      vertex -2.98046 -6.33379 0
      vertex -2.57687 -6.50844 14
      vertex -2.98046 -6.33379 14
    endloop
  endfacet
  facet normal -0.39715 -0.917754 -0
    outer loop
      vertex -2.57687 -6.50844 14
      vertex -2.98046 -6.33379 0
      vertex -2.57687 -6.50844 0
    endloop
  endfacet
  facet normal -0.33874 -0.94088 0
    outer loop
      vertex -2.57687 -6.50844 0
      vertex -2.16312 -6.6574 14
      vertex -2.57687 -6.50844 14
    endloop
  endfacet
  facet normal -0.33874 -0.94088 -0
    outer loop
      vertex -2.16312 -6.6574 14
      vertex -2.57687 -6.50844 0
      vertex -2.16312 -6.6574 0
    endloop
  endfacet
  facet normal -0.278977 -0.960298 0
    outer loop
      vertex -2.16312 -6.6574 0
      vertex -1.74083 -6.78008 14
      vertex -2.16312 -6.6574 14
    endloop
  endfacet
  facet normal -0.278977 -0.960298 -0
    outer loop
      vertex -1.74083 -6.78008 14
      vertex -2.16312 -6.6574 0
      vertex -1.74083 -6.78008 0
    endloop
  endfacet
  facet normal -0.218146 -0.975916 0
    outer loop
      vertex -1.74083 -6.78008 0
      vertex -1.31167 -6.87601 14
      vertex -1.74083 -6.78008 14
    endloop
  endfacet
  facet normal -0.218146 -0.975916 -0
    outer loop
      vertex -1.31167 -6.87601 14
      vertex -1.74083 -6.78008 0
      vertex -1.31167 -6.87601 0
    endloop
  endfacet
  facet normal -0.15643 -0.987689 0
    outer loop
      vertex -1.31167 -6.87601 0
      vertex -0.877333 -6.9448 14
      vertex -1.31167 -6.87601 14
    endloop
  endfacet
  facet normal -0.15643 -0.987689 -0
    outer loop
      vertex -0.877333 -6.9448 14
      vertex -1.31167 -6.87601 0
      vertex -0.877333 -6.9448 0
    endloop
  endfacet
  facet normal -0.0941214 -0.995561 0
    outer loop
      vertex -0.877333 -6.9448 0
      vertex -0.439534 -6.98619 14
      vertex -0.877333 -6.9448 14
    endloop
  endfacet
  facet normal -0.0941214 -0.995561 -0
    outer loop
      vertex -0.439534 -6.98619 14
      vertex -0.877333 -6.9448 0
      vertex -0.439534 -6.98619 0
    endloop
  endfacet
  facet normal -0.0314041 -0.999507 0
    outer loop
      vertex -0.439534 -6.98619 0
      vertex -0 -7 14
      vertex -0.439534 -6.98619 14
    endloop
  endfacet
  facet normal -0.0314041 -0.999507 -0
    outer loop
      vertex -0 -7 14
      vertex -0.439534 -6.98619 0
      vertex -0 -7 0
    endloop
  endfacet
  facet normal 0.0314041 -0.999507 0
    outer loop
      vertex -0 -7 0
      vertex 0.439534 -6.98619 14
      vertex -0 -7 14
    endloop
  endfacet
  facet normal 0.0314041 -0.999507 0
    outer loop
      vertex 0.439534 -6.98619 14
      vertex -0 -7 0
      vertex 0.439534 -6.98619 0
    endloop
  endfacet
  facet normal 0.0941214 -0.995561 0
    outer loop
      vertex 0.439534 -6.98619 0
      vertex 0.877333 -6.9448 14
      vertex 0.439534 -6.98619 14
    endloop
  endfacet
  facet normal 0.0941214 -0.995561 0
    outer loop
      vertex 0.877333 -6.9448 14
      vertex 0.439534 -6.98619 0
      vertex 0.877333 -6.9448 0
    endloop
  endfacet
  facet normal 0.15643 -0.987689 0
    outer loop
      vertex 0.877333 -6.9448 0
      vertex 1.31167 -6.87601 14
      vertex 0.877333 -6.9448 14
    endloop
  endfacet
  facet normal 0.15643 -0.987689 0
    outer loop
      vertex 1.31167 -6.87601 14
      vertex 0.877333 -6.9448 0
      vertex 1.31167 -6.87601 0
    endloop
  endfacet
  facet normal 0.218146 -0.975916 0
    outer loop
      vertex 1.31167 -6.87601 0
      vertex 1.74083 -6.78008 14
      vertex 1.31167 -6.87601 14
    endloop
  endfacet
  facet normal 0.218146 -0.975916 0
    outer loop
      vertex 1.74083 -6.78008 14
      vertex 1.31167 -6.87601 0
      vertex 1.74083 -6.78008 0
    endloop
  endfacet
  facet normal 0.278977 -0.960298 0
    outer loop
      vertex 1.74083 -6.78008 0
      vertex 2.16312 -6.6574 14
      vertex 1.74083 -6.78008 14
    endloop
  endfacet
  facet normal 0.278977 -0.960298 0
    outer loop
      vertex 2.16312 -6.6574 14
      vertex 1.74083 -6.78008 0
      vertex 2.16312 -6.6574 0
    endloop
  endfacet
  facet normal 0.33874 -0.94088 0
    outer loop
      vertex 2.16312 -6.6574 0
      vertex 2.57687 -6.50844 14
      vertex 2.16312 -6.6574 14
    endloop
  endfacet
  facet normal 0.33874 -0.94088 0
    outer loop
      vertex 2.57687 -6.50844 14
      vertex 2.16312 -6.6574 0
      vertex 2.57687 -6.50844 0
    endloop
  endfacet
  facet normal 0.39715 -0.917754 0
    outer loop
      vertex 2.57687 -6.50844 0
      vertex 2.98046 -6.33379 14
      vertex 2.57687 -6.50844 14
    endloop
  endfacet
  facet normal 0.39715 -0.917754 0
    outer loop
      vertex 2.98046 -6.33379 14
      vertex 2.57687 -6.50844 0
      vertex 2.98046 -6.33379 0
    endloop
  endfacet
  facet normal 0.453986 -0.891009 0
    outer loop
      vertex 2.98046 -6.33379 0
      vertex 3.37228 -6.13415 14
      vertex 2.98046 -6.33379 14
    endloop
  endfacet
  facet normal 0.453986 -0.891009 0
    outer loop
      vertex 3.37228 -6.13415 14
      vertex 2.98046 -6.33379 0
      vertex 3.37228 -6.13415 0
    endloop
  endfacet
  facet normal 0.509041 -0.860742 0
    outer loop
      vertex 3.37228 -6.13415 0
      vertex 3.75079 -5.9103 14
      vertex 3.37228 -6.13415 14
    endloop
  endfacet
  facet normal 0.509041 -0.860742 0
    outer loop
      vertex 3.75079 -5.9103 14
      vertex 3.37228 -6.13415 0
      vertex 3.75079 -5.9103 0
    endloop
  endfacet
  facet normal 0.562088 -0.827077 0
    outer loop
      vertex 3.75079 -5.9103 0
      vertex 4.1145 -5.66312 14
      vertex 3.75079 -5.9103 14
    endloop
  endfacet
  facet normal 0.562088 -0.827077 0
    outer loop
      vertex 4.1145 -5.66312 14
      vertex 3.75079 -5.9103 0
      vertex 4.1145 -5.66312 0
    endloop
  endfacet
  facet normal 0.612914 -0.79015 0
    outer loop
      vertex 4.1145 -5.66312 0
      vertex 4.46197 -5.39359 14
      vertex 4.1145 -5.66312 14
    endloop
  endfacet
  facet normal 0.612914 -0.79015 0
    outer loop
      vertex 4.46197 -5.39359 14
      vertex 4.1145 -5.66312 0
      vertex 4.46197 -5.39359 0
    endloop
  endfacet
  facet normal 0.661311 -0.750112 0
    outer loop
      vertex 4.46197 -5.39359 0
      vertex 4.79183 -5.10278 14
      vertex 4.46197 -5.39359 14
    endloop
  endfacet
  facet normal 0.661311 -0.750112 0
    outer loop
      vertex 4.79183 -5.10278 14
      vertex 4.46197 -5.39359 0
      vertex 4.79183 -5.10278 0
    endloop
  endfacet
  facet normal 0.707107 -0.707107 0
    outer loop
      vertex 4.79183 -5.10278 14
      vertex 5.10278 -4.79183 0
      vertex 5.10278 -4.79183 14
    endloop
  endfacet
  facet normal 0.707107 -0.707107 0
    outer loop
      vertex 5.10278 -4.79183 0
      vertex 4.79183 -5.10278 14
      vertex 4.79183 -5.10278 0
    endloop
  endfacet
  facet normal 0.750112 -0.661311 0
    outer loop
      vertex 5.10278 -4.79183 14
      vertex 5.39359 -4.46197 0
      vertex 5.39359 -4.46197 14
    endloop
  endfacet
  facet normal 0.750112 -0.661311 0
    outer loop
      vertex 5.39359 -4.46197 0
      vertex 5.10278 -4.79183 14
      vertex 5.10278 -4.79183 0
    endloop
  endfacet
  facet normal 0.79015 -0.612914 0
    outer loop
      vertex 5.39359 -4.46197 14
      vertex 5.66312 -4.1145 0
      vertex 5.66312 -4.1145 14
    endloop
  endfacet
  facet normal 0.79015 -0.612914 0
    outer loop
      vertex 5.66312 -4.1145 0
      vertex 5.39359 -4.46197 14
      vertex 5.39359 -4.46197 0
    endloop
  endfacet
  facet normal 0.827077 -0.562088 0
    outer loop
      vertex 5.66312 -4.1145 14
      vertex 5.9103 -3.75079 0
      vertex 5.9103 -3.75079 14
    endloop
  endfacet
  facet normal 0.827077 -0.562088 0
    outer loop
      vertex 5.9103 -3.75079 0
      vertex 5.66312 -4.1145 14
      vertex 5.66312 -4.1145 0
    endloop
  endfacet
  facet normal 0.860742 -0.509041 0
    outer loop
      vertex 5.9103 -3.75079 14
      vertex 6.13415 -3.37228 0
      vertex 6.13415 -3.37228 14
    endloop
  endfacet
  facet normal 0.860742 -0.509041 0
    outer loop
      vertex 6.13415 -3.37228 0
      vertex 5.9103 -3.75079 14
      vertex 5.9103 -3.75079 0
    endloop
  endfacet
  facet normal 0.891009 -0.453986 0
    outer loop
      vertex 6.13415 -3.37228 14
      vertex 6.33379 -2.98046 0
      vertex 6.33379 -2.98046 14
    endloop
  endfacet
  facet normal 0.891009 -0.453986 0
    outer loop
      vertex 6.33379 -2.98046 0
      vertex 6.13415 -3.37228 14
      vertex 6.13415 -3.37228 0
    endloop
  endfacet
  facet normal 0.917754 -0.39715 0
    outer loop
      vertex 6.33379 -2.98046 14
      vertex 6.50844 -2.57687 0
      vertex 6.50844 -2.57687 14
    endloop
  endfacet
  facet normal 0.917754 -0.39715 0
    outer loop
      vertex 6.50844 -2.57687 0
      vertex 6.33379 -2.98046 14
      vertex 6.33379 -2.98046 0
    endloop
  endfacet
  facet normal 0.94088 -0.33874 0
    outer loop
      vertex 6.50844 -2.57687 14
      vertex 6.6574 -2.16312 0
      vertex 6.6574 -2.16312 14
    endloop
  endfacet
  facet normal 0.94088 -0.33874 0
    outer loop
      vertex 6.6574 -2.16312 0
      vertex 6.50844 -2.57687 14
      vertex 6.50844 -2.57687 0
    endloop
  endfacet
  facet normal 0.960298 -0.278977 0
    outer loop
      vertex 6.6574 -2.16312 14
      vertex 6.78008 -1.74083 0
      vertex 6.78008 -1.74083 14
    endloop
  endfacet
  facet normal 0.960298 -0.278977 0
    outer loop
      vertex 6.78008 -1.74083 0
      vertex 6.6574 -2.16312 14
      vertex 6.6574 -2.16312 0
    endloop
  endfacet
  facet normal 0.975916 -0.218146 0
    outer loop
      vertex 6.78008 -1.74083 14
      vertex 6.87601 -1.31167 0
      vertex 6.87601 -1.31167 14
    endloop
  endfacet
  facet normal 0.975916 -0.218146 0
    outer loop
      vertex 6.87601 -1.31167 0
      vertex 6.78008 -1.74083 14
      vertex 6.78008 -1.74083 0
    endloop
  endfacet
  facet normal 0.987689 -0.15643 0
    outer loop
      vertex 6.87601 -1.31167 14
      vertex 6.9448 -0.877333 0
      vertex 6.9448 -0.877333 14
    endloop
  endfacet
  facet normal 0.987689 -0.15643 0
    outer loop
      vertex 6.9448 -0.877333 0
      vertex 6.87601 -1.31167 14
      vertex 6.87601 -1.31167 0
    endloop
  endfacet
  facet normal 0.995561 -0.0941214 0
    outer loop
      vertex 6.9448 -0.877333 14
      vertex 6.98619 -0.439534 0
      vertex 6.98619 -0.439534 14
    endloop
  endfacet
  facet normal 0.995561 -0.0941214 0
    outer loop
      vertex 6.98619 -0.439534 0
      vertex 6.9448 -0.877333 14
      vertex 6.9448 -0.877333 0
    endloop
  endfacet
  facet normal 0.999507 -0.0314041 0
    outer loop
      vertex 6.98619 -0.439534 14
      vertex 7 0 0
      vertex 7 0 14
    endloop
  endfacet
  facet normal 0.999507 -0.0314041 0
    outer loop
      vertex 7 0 0
      vertex 6.98619 -0.439534 14
      vertex 6.98619 -0.439534 0
    endloop
  endfacet
  facet normal 0 0 -1
    outer loop
      vertex 6.98619 -0.439534 0
      vertex 6.98619 0.439534 0
      vertex 7 0 0
    endloop
  endfacet
  facet normal 0 0 -1
    outer loop
      vertex 6.9448 -0.877333 0
      vertex 6.98619 0.439534 0
      vertex 6.98619 -0.439534 0
    endloop
  endfacet
  facet normal 0 0 -1
    outer loop
      vertex 6.9448 -0.877333 0
      vertex 6.9448 0.877333 0
      vertex 6.98619 0.439534 0
    endloop
  endfacet
  facet normal 0 0 -1
    outer loop
      vertex 6.87601 -1.31167 0
      vertex 6.9448 0.877333 0
      vertex 6.9448 -0.877333 0
    endloop
  endfacet
  facet normal 0 0 -1
    outer loop
      vertex 6.87601 -1.31167 0
      vertex 6.87601 1.31167 0
      vertex 6.9448 0.877333 0
    endloop
  endfacet
  facet normal 0 0 -1
    outer loop
      vertex 6.78008 -1.74083 0
      vertex 6.87601 1.31167 0
      vertex 6.87601 -1.31167 0
    endloop
  endfacet
  facet normal 0 0 -1
    outer loop
      vertex 6.78008 -1.74083 0
      vertex 6.78008 1.74083 0
      vertex 6.87601 1.31167 0
    endloop
  endfacet
  facet normal 0 0 -1
    outer loop
      vertex 6.6574 -2.16312 0
      vertex 6.78008 1.74083 0
      vertex 6.78008 -1.74083 0
    endloop
  endfacet
  facet normal 0 0 -1
    outer loop
      vertex 6.6574 -2.16312 0
      vertex 6.6574 2.16312 0
      vertex 6.78008 1.74083 0
    endloop
  endfacet
  facet normal 0 0 -1
    outer loop
      vertex 6.50844 -2.57687 0
      vertex 6.6574 2.16312 0
      vertex 6.6574 -2.16312 0
    endloop
  endfacet
  facet normal 0 0 -1
    outer loop
      vertex 6.50844 -2.57687 0
      vertex 6.50844 2.57687 0
      vertex 6.6574 2.16312 0
    endloop
  endfacet
  facet normal 0 0 -1
    outer loop
      vertex 6.33379 -2.98046 0
      vertex 6.50844 2.57687 0
      vertex 6.50844 -2.57687 0
    endloop
  endfacet
  facet normal 0 0 -1
    outer loop
      vertex 6.33379 -2.98046 0
      vertex 6.33379 2.98046 0
      vertex 6.50844 2.57687 0
    endloop
  endfacet
  facet normal 0 0 -1
    outer loop
      vertex 6.13415 -3.37228 0
      vertex 6.33379 2.98046 0
      vertex 6.33379 -2.98046 0
    endloop
  endfacet
  facet normal 0 0 -1
    outer loop
      vertex 6.13415 -3.37228 0
      vertex 6.13415 3.37228 0
      vertex 6.33379 2.98046 0
    endloop
  endfacet
  facet normal 0 0 -1
    outer loop
      vertex 5.9103 -3.75079 0
      vertex 6.13415 3.37228 0
      vertex 6.13415 -3.37228 0
    endloop
  endfacet
  facet normal 0 0 -1
    outer loop
      vertex 5.9103 -3.75079 0
      vertex 5.9103 3.75079 0
      vertex 6.13415 3.37228 0
    endloop
  endfacet
  facet normal 0 0 -1
    outer loop
      vertex 5.66312 -4.1145 0
      vertex 5.9103 3.75079 0
      vertex 5.9103 -3.75079 0
    endloop
  endfacet
  facet normal 0 0 -1
    outer loop
      vertex 5.66312 -4.1145 0
      vertex 5.66312 4.1145 0
      vertex 5.9103 3.75079 0
    endloop
  endfacet
  facet normal 0 0 -1
    outer loop
      vertex 5.39359 -4.46197 0
      vertex 5.66312 4.1145 0
      vertex 5.66312 -4.1145 0
    endloop
  endfacet
  facet normal 0 0 -1
    outer loop
      vertex 5.39359 -4.46197 0
      vertex 5.39359 4.46197 0
      vertex 5.66312 4.1145 0
    endloop
  endfacet
  facet normal 0 0 -1
    outer loop
      vertex 5.10278 -4.79183 0
      vertex 5.39359 4.46197 0
      vertex 5.39359 -4.46197 0
    endloop
  endfacet
  facet normal 0 0 -1
    outer loop
      vertex 5.10278 -4.79183 0
      vertex 5.10278 4.79183 0
      vertex 5.39359 4.46197 0
    endloop
  endfacet
  facet normal 0 0 -1
    outer loop
      vertex 4.79183 -5.10278 0
      vertex 5.10278 4.79183 0
      vertex 5.10278 -4.79183 0
    endloop
  endfacet
  facet normal 0 0 -1
    outer loop
      vertex 4.79183 -5.10278 0
      vertex 4.79183 5.10278 0
      vertex 5.10278 4.79183 0
    endloop
  endfacet
  facet normal 0 0 -1
    outer loop
      vertex 4.46197 -5.39359 0
      vertex 4.79183 5.10278 0
      vertex 4.79183 -5.10278 0
    endloop
  endfacet
  facet normal 0 0 -1
    outer loop
      vertex 4.46197 -5.39359 0
      vertex 4.46197 5.39359 0
      vertex 4.79183 5.10278 0
    endloop
  endfacet
  facet normal 0 0 -1
    outer loop
      vertex 4.1145 -5.66312 0
      vertex 4.46197 5.39359 0
      vertex 4.46197 -5.39359 0
    endloop
  endfacet
  facet normal 0 0 -1
    outer loop
      vertex 4.1145 -5.66312 0
      vertex 4.1145 5.66312 0
      vertex 4.46197 5.39359 0
    endloop
  endfacet
  facet normal 0 0 -1
    outer loop
      vertex 3.75079 -5.9103 0
      vertex 4.1145 5.66312 0
      vertex 4.1145 -5.66312 0
    endloop
  endfacet
  facet normal 0 0 -1
    outer loop
      vertex 3.75079 -5.9103 0
      vertex 3.75079 5.9103 0
      vertex 4.1145 5.66312 0
    endloop
  endfacet
  facet normal 0 0 -1
    outer loop
      vertex 3.37228 -6.13415 0
      vertex 3.75079 5.9103 0
      vertex 3.75079 -5.9103 0
    endloop
  endfacet
  facet normal 0 0 -1
    outer loop
      vertex 3.37228 -6.13415 0
      vertex 3.37228 6.13415 0
      vertex 3.75079 5.9103 0
    endloop
  endfacet
  facet normal 0 0 -1
    outer loop
      vertex 2.98046 -6.33379 0
      vertex 3.37228 6.13415 0
      vertex 3.37228 -6.13415 0
    endloop
  endfacet
  facet normal 0 0 -1
    outer loop
      vertex 2.98046 -6.33379 0
      vertex 2.98046 6.33379 0
      vertex 3.37228 6.13415 0
    endloop
  endfacet
  facet normal 0 0 -1
    outer loop
      vertex 2.57687 -6.50844 0
      vertex 2.98046 6.33379 0
      vertex 2.98046 -6.33379 0
    endloop
  endfacet
  facet normal 0 0 -1
    outer loop
      vertex 2.57687 -6.50844 0
      vertex 2.57687 6.50844 0
      vertex 2.98046 6.33379 0
    endloop
  endfacet
  facet normal 0 0 -1
    outer loop
      vertex 2.16312 -6.6574 0
      vertex 2.57687 6.50844 0
      vertex 2.57687 -6.50844 0
    endloop
  endfacet
  facet normal 0 0 -1
    outer loop
      vertex 2.16312 -6.6574 0
      vertex 2.16312 6.6574 0
      vertex 2.57687 6.50844 0
    endloop
  endfacet
  facet normal 0 0 -1
    outer loop
      vertex 1.74083 -6.78008 0
      vertex 2.16312 6.6574 0
      vertex 2.16312 -6.6574 0
    endloop
  endfacet
  facet normal 0 0 -1
    outer loop
      vertex 1.74083 -6.78008 0
      vertex 1.74083 6.78008 0
      vertex 2.16312 6.6574 0
    endloop
  endfacet
  facet normal 0 0 -1
    outer loop
      vertex 1.31167 -6.87601 0
      vertex 1.74083 6.78008 0
      vertex 1.74083 -6.78008 0
    endloop
  endfacet
  facet normal 0 0 -1
    outer loop
      vertex 1.31167 -6.87601 0
      vertex 1.31167 6.87601 0
      vertex 1.74083 6.78008 0
    endloop
  endfacet
  facet normal 0 0 -1
    outer loop
      vertex 0.877333 -6.9448 0
      vertex 1.31167 6.87601 0
      vertex 1.31167 -6.87601 0
    endloop
  endfacet
  facet normal 0 0 -1
    outer loop
      vertex 0.877333 -6.9448 0
      vertex 0.877333 6.9448 0
      vertex 1.31167 6.87601 0
    endloop
  endfacet
  facet normal 0 0 -1
    outer loop
      vertex 0.439534 -6.98619 0
      vertex 0.877333 6.9448 0
      vertex 0.877333 -6.9448 0
    endloop
  endfacet
  facet normal 0 0 -1
    outer loop
      vertex 0.439534 -6.98619 0
      vertex 0.439534 6.98619 0
      vertex 0.877333 6.9448 0
    endloop
  endfacet
  facet normal 0 0 -1
    outer loop
      vertex -0 -7 0
      vertex 0.439534 6.98619 0
      vertex 0.439534 -6.98619 0
    endloop
  endfacet
  facet normal 0 0 -1
    outer loop
      vertex -0 -7 0
      vertex 0 7 0
      vertex 0.439534 6.98619 0
    endloop
  endfacet
  facet normal 0 0 -1
    outer loop
      vertex -0.439534 -6.98619 0
      vertex 0 7 0
      vertex -0 -7 0
    endloop
  endfacet
  facet normal 0 0 -1
    outer loop
      vertex -0.439534 -6.98619 0
      vertex -0.439534 6.98619 0
      vertex 0 7 0
    endloop
  endfacet
  facet normal 0 0 -1
    outer loop
      vertex -0.877333 -6.9448 0
      vertex -0.439534 6.98619 0
      vertex -0.439534 -6.98619 0
    endloop
  endfacet
  facet normal 0 0 -1
    outer loop
      vertex -0.877333 -6.9448 0
      vertex -0.877333 6.9448 0
      vertex -0.439534 6.98619 0
    endloop
  endfacet
  facet normal 0 0 -1
    outer loop
      vertex -1.31167 -6.87601 0
      vertex -0.877333 6.9448 0
      vertex -0.877333 -6.9448 0
    endloop
  endfacet
  facet normal 0 0 -1
    outer loop
      vertex -1.31167 -6.87601 0
      vertex -1.31167 6.87601 0
      vertex -0.877333 6.9448 0
    endloop
  endfacet
  facet normal 0 0 -1
    outer loop
      vertex -1.74083 -6.78008 0
      vertex -1.31167 6.87601 0
      vertex -1.31167 -6.87601 0
    endloop
  endfacet
  facet normal 0 0 -1
    outer loop
      vertex -1.74083 -6.78008 0
      vertex -1.74083 6.78008 0
      vertex -1.31167 6.87601 0
    endloop
  endfacet
  facet normal 0 0 -1
    outer loop
      vertex -2.16312 -6.6574 0
      vertex -1.74083 6.78008 0
      vertex -1.74083 -6.78008 0
    endloop
  endfacet
  facet normal 0 0 -1
    outer loop
      vertex -2.16312 -6.6574 0
      vertex -2.16312 6.6574 0
      vertex -1.74083 6.78008 0
    endloop
  endfacet
  facet normal 0 0 -1
    outer loop
      vertex -2.57687 -6.50844 0
      vertex -2.16312 6.6574 0
      vertex -2.16312 -6.6574 0
    endloop
  endfacet
  facet normal 0 0 -1
    outer loop
      vertex -2.57687 -6.50844 0
      vertex -2.57687 6.50844 0
      vertex -2.16312 6.6574 0
    endloop
  endfacet
  facet normal 0 0 -1
    outer loop
      vertex -2.98046 -6.33379 0
      vertex -2.57687 6.50844 0
      vertex -2.57687 -6.50844 0
    endloop
  endfacet
  facet normal 0 0 -1
    outer loop
      vertex -2.98046 -6.33379 0
      vertex -2.98046 6.33379 0
      vertex -2.57687 6.50844 0
    endloop
  endfacet
  facet normal 0 0 -1
    outer loop
      vertex -3.37228 -6.13415 0
      vertex -2.98046 6.33379 0
      vertex -2.98046 -6.33379 0
    endloop
  endfacet
  facet normal 0 0 -1
    outer loop
      vertex -3.37228 -6.13415 0
      vertex -3.37228 6.13415 0
      vertex -2.98046 6.33379 0
    endloop
  endfacet
  facet normal 0 0 -1
    outer loop
      vertex -3.75079 -5.9103 0
      vertex -3.37228 6.13415 0
      vertex -3.37228 -6.13415 0
    endloop
  endfacet
  facet normal 0 0 -1
    outer loop
      vertex -3.75079 -5.9103 0
      vertex -3.75079 5.9103 0
      vertex -3.37228 6.13415 0
    endloop
  endfacet
  facet normal 0 0 -1
    outer loop
      vertex -4.1145 -5.66312 0
      vertex -3.75079 5.9103 0
      vertex -3.75079 -5.9103 0
    endloop
  endfacet
  facet normal 0 0 -1
    outer loop
      vertex -4.1145 -5.66312 0
      vertex -4.1145 5.66312 0
      vertex -3.75079 5.9103 0
    endloop
  endfacet
  facet normal 0 0 -1
    outer loop
      vertex -4.46197 -5.39359 0
      vertex -4.1145 5.66312 0
      vertex -4.1145 -5.66312 0
    endloop
  endfacet
  facet normal 0 0 -1
    outer loop
      vertex -4.46197 -5.39359 0
      vertex -4.46197 5.39359 0
      vertex -4.1145 5.66312 0
    endloop
  endfacet
  facet normal 0 0 -1
    outer loop
      vertex -4.79183 -5.10278 0
      vertex -4.46197 5.39359 0
      vertex -4.46197 -5.39359 0
    endloop
  endfacet
  facet normal 0 0 -1
    outer loop
      vertex -4.79183 -5.10278 0
      vertex -4.79183 5.10278 0
      vertex -4.46197 5.39359 0
    endloop
  endfacet
  facet normal 0 0 -1
    outer loop
      vertex -5.10278 -4.79183 0
      vertex -4.79183 5.10278 0
      vertex -4.79183 -5.10278 0
    endloop
  endfacet
  facet normal 0 0 -1
    outer loop
      vertex -5.10278 -4.79183 0
      vertex -5.10278 4.79183 0
      vertex -4.79183 5.10278 0
    endloop
  endfacet
  facet normal 0 0 -1
    outer loop
      vertex -5.39359 -4.46197 0
      vertex -5.10278 4.79183 0
      vertex -5.10278 -4.79183 0
    endloop
  endfacet
  facet normal 0 0 -1
    outer loop
      vertex -5.39359 -4.46197 0
      vertex -5.39359 4.46197 0
      vertex -5.10278 4.79183 0
    endloop
  endfacet
  facet normal 0 0 -1
    outer loop
      vertex -5.66312 -4.1145 0
      vertex -5.39359 4.46197 0
      vertex -5.39359 -4.46197 0
    endloop
  endfacet
  facet normal 0 0 -1
    outer loop
      vertex -5.66312 -4.1145 0
      vertex -5.66312 4.1145 0
      vertex -5.39359 4.46197 0
    endloop
  endfacet
  facet normal 0 0 -1
    outer loop
      vertex -5.9103 -3.75079 0
      vertex -5.66312 4.1145 0
      vertex -5.66312 -4.1145 0
    endloop
  endfacet
  facet normal 0 0 -1
    outer loop
      vertex -5.9103 -3.75079 0
      vertex -5.9103 3.75079 0
      vertex -5.66312 4.1145 0
    endloop
  endfacet
  facet normal 0 0 -1
    outer loop
      vertex -6.13415 -3.37228 0
      vertex -5.9103 3.75079 0
      vertex -5.9103 -3.75079 0
    endloop
  endfacet
  facet normal 0 0 -1
    outer loop
      vertex -6.13415 -3.37228 0
      vertex -6.13415 3.37228 0
      vertex -5.9103 3.75079 0
    endloop
  endfacet
  facet normal 0 0 -1
    outer loop
      vertex -6.33379 -2.98046 0
      vertex -6.13415 3.37228 0
      vertex -6.13415 -3.37228 0
    endloop
  endfacet
  facet normal 0 0 -1
    outer loop
      vertex -6.33379 -2.98046 0
      vertex -6.33379 2.98046 0
      vertex -6.13415 3.37228 0
    endloop
  endfacet
  facet normal 0 0 -1
    outer loop
      vertex -6.50844 -2.57687 0
      vertex -6.33379 2.98046 0
      vertex -6.33379 -2.98046 0
    endloop
  endfacet
  facet normal 0 0 -1
    outer loop
      vertex -6.50844 -2.57687 0
      vertex -6.50844 2.57687 0
      vertex -6.33379 2.98046 0
    endloop
  endfacet
  facet normal 0 0 -1
    outer loop
      vertex -6.6574 -2.16312 0
      vertex -6.50844 2.57687 0
      vertex -6.50844 -2.57687 0
    endloop
  endfacet
  facet normal 0 0 -1
    outer loop
      vertex -6.6574 -2.16312 0
      vertex -6.6574 2.16312 0
      vertex -6.50844 2.57687 0
    endloop
  endfacet
  facet normal 0 0 -1
    outer loop
      vertex -6.78008 -1.74083 0
      vertex -6.6574 2.16312 0
      vertex -6.6574 -2.16312 0
    endloop
  endfacet
  facet normal 0 0 -1
    outer loop
      vertex -6.78008 -1.74083 0
      vertex -6.78008 1.74083 0
      vertex -6.6574 2.16312 0
    endloop
  endfacet
  facet normal 0 0 -1
    outer loop
      vertex -6.87601 -1.31167 0
      vertex -6.78008 1.74083 0
      vertex -6.78008 -1.74083 0
    endloop
  endfacet
  facet normal 0 0 -1
    outer loop
      vertex -6.87601 -1.31167 0
      vertex -6.87601 1.31167 0
      vertex -6.78008 1.74083 0
    endloop
  endfacet
  facet normal 0 0 -1
    outer loop
      vertex -6.9448 -0.877333 0
      vertex -6.87601 1.31167 0
      vertex -6.87601 -1.31167 0
    endloop
  endfacet
  facet normal 0 0 -1
    outer loop
      vertex -6.9448 -0.877333 0
      vertex -6.9448 0.877333 0
      vertex -6.87601 1.31167 0
    endloop
  endfacet
  facet normal 0 0 -1
    outer loop
      vertex -6.98619 -0.439534 0
      vertex -6.9448 0.877333 0
      vertex -6.9448 -0.877333 0
    endloop
  endfacet
  facet normal 0 0 -1
    outer loop
      vertex -6.98619 -0.439534 0
      vertex -6.98619 0.439534 0
      vertex -6.9448 0.877333 0
    endloop
  endfacet
  facet normal 0 -0 -1
    outer loop
      vertex -6.98619 0.439534 0
      vertex -6.98619 -0.439534 0
      vertex -7 -0 0
    endloop
  endfacet
  facet normal 0 0 1
    outer loop
      vertex 6.98619 0.439534 14
      vertex 6.98619 -0.439534 14
      vertex 7 0 14
    endloop
  endfacet
  facet normal 0 0 1
    outer loop
      vertex 6.9448 0.877333 14
      vertex 6.98619 -0.439534 14
      vertex 6.98619 0.439534 14
    endloop
  endfacet
  facet normal 0 0 1
    outer loop
      vertex 6.9448 0.877333 14
      vertex 6.9448 -0.877333 14
      vertex 6.98619 -0.439534 14
    endloop
  endfacet
  facet normal 0 0 1
    outer loop
      vertex 6.87601 1.31167 14
      vertex 6.9448 -0.877333 14
      vertex 6.9448 0.877333 14
    endloop
  endfacet
  facet normal 0 0 1
    outer loop
      vertex 6.87601 1.31167 14
      vertex 6.87601 -1.31167 14
      vertex 6.9448 -0.877333 14
    endloop
  endfacet
  facet normal 0 0 1
    outer loop
      vertex 6.78008 1.74083 14
      vertex 6.87601 -1.31167 14
      vertex 6.87601 1.31167 14
    endloop
  endfacet
  facet normal 0 0 1
    outer loop
      vertex 6.78008 1.74083 14
      vertex 6.78008 -1.74083 14
      vertex 6.87601 -1.31167 14
    endloop
  endfacet
  facet normal 0 0 1
    outer loop
      vertex 6.6574 2.16312 14
      vertex 6.78008 -1.74083 14
      vertex 6.78008 1.74083 14
    endloop
  endfacet
  facet normal 0 0 1
    outer loop
      vertex 6.6574 2.16312 14
      vertex 6.6574 -2.16312 14
      vertex 6.78008 -1.74083 14
    endloop
  endfacet
  facet normal 0 0 1
    outer loop
      vertex 6.50844 2.57687 14
      vertex 6.6574 -2.16312 14
      vertex 6.6574 2.16312 14
    endloop
  endfacet
  facet normal 0 0 1
    outer loop
      vertex 6.50844 2.57687 14
      vertex 6.50844 -2.57687 14
      vertex 6.6574 -2.16312 14
    endloop
  endfacet
  facet normal 0 0 1
    outer loop
      vertex 6.33379 2.98046 14
      vertex 6.50844 -2.57687 14
      vertex 6.50844 2.57687 14
    endloop
  endfacet
  facet normal 0 0 1
    outer loop
      vertex 6.33379 2.98046 14
      vertex 6.33379 -2.98046 14
      vertex 6.50844 -2.57687 14
    endloop
  endfacet
  facet normal 0 0 1
    outer loop
      vertex 6.13415 3.37228 14
      vertex 6.33379 -2.98046 14
      vertex 6.33379 2.98046 14
    endloop
  endfacet
  facet normal 0 0 1
    outer loop
      vertex 6.13415 3.37228 14
      vertex 6.13415 -3.37228 14
      vertex 6.33379 -2.98046 14
    endloop
  endfacet
  facet normal 0 0 1
    outer loop
      vertex 5.9103 3.75079 14
      vertex 6.13415 -3.37228 14
      vertex 6.13415 3.37228 14
    endloop
  endfacet
  facet normal 0 0 1
    outer loop
      vertex 5.9103 3.75079 14
      vertex 5.9103 -3.75079 14
      vertex 6.13415 -3.37228 14
    endloop
  endfacet
  facet normal 0 0 1
    outer loop
      vertex 5.66312 4.1145 14
      vertex 5.9103 -3.75079 14
      vertex 5.9103 3.75079 14
    endloop
  endfacet
  facet normal 0 0 1
    outer loop
      vertex 5.66312 4.1145 14
      vertex 5.66312 -4.1145 14
      vertex 5.9103 -3.75079 14
    endloop
  endfacet
  facet normal 0 0 1
    outer loop
      vertex 5.39359 4.46197 14
      vertex 5.66312 -4.1145 14
      vertex 5.66312 4.1145 14
    endloop
  endfacet
  facet normal 0 0 1
    outer loop
      vertex 5.39359 4.46197 14
      vertex 5.39359 -4.46197 14
      vertex 5.66312 -4.1145 14
    endloop
  endfacet
  facet normal 0 0 1
    outer loop
      vertex 5.10278 4.79183 14
      vertex 5.39359 -4.46197 14
      vertex 5.39359 4.46197 14
    endloop
  endfacet
  facet normal 0 0 1
    outer loop
      vertex 5.10278 4.79183 14
      vertex 5.10278 -4.79183 14
      vertex 5.39359 -4.46197 14
    endloop
  endfacet
  facet normal 0 0 1
    outer loop
      vertex 4.79183 5.10278 14
      vertex 5.10278 -4.79183 14
      vertex 5.10278 4.79183 14
    endloop
  endfacet
  facet normal 0 0 1
    outer loop
      vertex 4.79183 5.10278 14
      vertex 4.79183 -5.10278 14
      vertex 5.10278 -4.79183 14
    endloop
  endfacet
  facet normal 0 0 1
    outer loop
      vertex 4.46197 5.39359 14
      vertex 4.79183 -5.10278 14
      vertex 4.79183 5.10278 14
    endloop
  endfacet
  facet normal 0 0 1
    outer loop
      vertex 4.46197 5.39359 14
      vertex 4.46197 -5.39359 14
      vertex 4.79183 -5.10278 14
    endloop
  endfacet
  facet normal 0 0 1
    outer loop
      vertex 4.1145 5.66312 14
      vertex 4.46197 -5.39359 14
      vertex 4.46197 5.39359 14
    endloop
  endfacet
  facet normal 0 0 1
    outer loop
      vertex 4.1145 5.66312 14
      vertex 4.1145 -5.66312 14
      vertex 4.46197 -5.39359 14
    endloop
  endfacet
  facet normal 0 0 1
    outer loop
      vertex 3.75079 5.9103 14
      vertex 4.1145 -5.66312 14
      vertex 4.1145 5.66312 14
    endloop
  endfacet
  facet normal 0 0 1
    outer loop
      vertex 3.75079 5.9103 14
      vertex 3.75079 -5.9103 14
      vertex 4.1145 -5.66312 14
    endloop
  endfacet
  facet normal 0 0 1
    outer loop
      vertex 3.37228 6.13415 14
      vertex 3.75079 -5.9103 14
      vertex 3.75079 5.9103 14
    endloop
  endfacet
  facet normal 0 0 1
    outer loop
      vertex 3.37228 6.13415 14
      vertex 3.37228 -6.13415 14
      vertex 3.75079 -5.9103 14
    endloop
  endfacet
  facet normal 0 0 1
    outer loop
      vertex 2.98046 6.33379 14
      vertex 3.37228 -6.13415 14
      vertex 3.37228 6.13415 14
    endloop
  endfacet
  facet normal 0 0 1
    outer loop
      vertex 2.98046 6.33379 14
      vertex 2.98046 -6.33379 14
      vertex 3.37228 -6.13415 14
    endloop
  endfacet
  facet normal 0 0 1
    outer loop
      vertex 2.57687 6.50844 14
      vertex 2.98046 -6.33379 14
      vertex 2.98046 6.33379 14
    endloop
  endfacet
  facet normal 0 0 1
    outer loop
      vertex 2.57687 6.50844 14
      vertex 2.57687 -6.50844 14
      vertex 2.98046 -6.33379 14
    endloop
  endfacet
  facet normal 0 0 1
    outer loop
      vertex 2.16312 6.6574 14
      vertex 2.57687 -6.50844 14
      vertex 2.57687 6.50844 14
    endloop
  endfacet
  facet normal 0 0 1
    outer loop
      vertex 2.16312 6.6574 14
      vertex 2.16312 -6.6574 14
      vertex 2.57687 -6.50844 14
    endloop
  endfacet
  facet normal 0 0 1
    outer loop
      vertex 1.74083 6.78008 14
      vertex 2.16312 -6.6574 14
      vertex 2.16312 6.6574 14
    endloop
  endfacet
  facet normal 0 0 1
    outer loop
      vertex 1.74083 6.78008 14
      vertex 1.74083 -6.78008 14
      vertex 2.16312 -6.6574 14
    endloop
  endfacet
  facet normal 0 0 1
    outer loop
      vertex 1.31167 6.87601 14
      vertex 1.74083 -6.78008 14
      vertex 1.74083 6.78008 14
    endloop
  endfacet
  facet normal 0 0 1
    outer loop
      vertex 1.31167 6.87601 14
      vertex 1.31167 -6.87601 14
      vertex 1.74083 -6.78008 14
    endloop
  endfacet
  facet normal 0 0 1
    outer loop
      vertex 0.877333 6.9448 14
      vertex 1.31167 -6.87601 14
      vertex 1.31167 6.87601 14
    endloop
  endfacet
  facet normal 0 0 1
    outer loop
      vertex 0.877333 6.9448 14
      vertex 0.877333 -6.9448 14
      vertex 1.31167 -6.87601 14
    endloop
  endfacet
  facet normal 0 0 1
    outer loop
      vertex 0.439534 6.98619 14
      vertex 0.877333 -6.9448 14
      vertex 0.877333 6.9448 14
    endloop
  endfacet
  facet normal 0 0 1
    outer loop
      vertex 0.439534 6.98619 14
      vertex 0.439534 -6.98619 14
      vertex 0.877333 -6.9448 14
    endloop
  endfacet
  facet normal 0 0 1
    outer loop
      vertex 0 7 14
      vertex 0.439534 -6.98619 14
      vertex 0.439534 6.98619 14
    endloop
  endfacet
  facet normal 0 0 1
    outer loop
      vertex 0 7 14
      vertex -0 -7 14
      vertex 0.439534 -6.98619 14
    endloop
  endfacet
  facet normal -0 0 1
    outer loop
      vertex -0.439534 6.98619 14
      vertex -0 -7 14
      vertex 0 7 14
    endloop
  endfacet
  facet normal 0 0 1
    outer loop
      vertex -0.439534 6.98619 14
      vertex -0.439534 -6.98619 14
      vertex -0 -7 14
    endloop
  endfacet
  facet normal -0 0 1
    outer loop
      vertex -0.877333 6.9448 14
      vertex -0.439534 -6.98619 14
      vertex -0.439534 6.98619 14
    endloop
  endfacet
  facet normal 0 0 1
    outer loop
      vertex -0.877333 6.9448 14
      vertex -0.877333 -6.9448 14
      vertex -0.439534 -6.98619 14
    endloop
  endfacet
  facet normal -0 0 1
    outer loop
      vertex -1.31167 6.87601 14
      vertex -0.877333 -6.9448 14
      vertex -0.877333 6.9448 14
    endloop
  endfacet
  facet normal 0 0 1
    outer loop
      vertex -1.31167 6.87601 14
      vertex -1.31167 -6.87601 14
      vertex -0.877333 -6.9448 14
    endloop
  endfacet
  facet normal -0 0 1
    outer loop
      vertex -1.74083 6.78008 14
      vertex -1.31167 -6.87601 14
      vertex -1.31167 6.87601 14
    endloop
  endfacet
  facet normal 0 0 1
    outer loop
      vertex -1.74083 6.78008 14
      vertex -1.74083 -6.78008 14
      vertex -1.31167 -6.87601 14
    endloop
  endfacet
  facet normal -0 0 1
    outer loop
      vertex -2.16312 6.6574 14
      vertex -1.74083 -6.78008 14
      vertex -1.74083 6.78008 14
    endloop
  endfacet
  facet normal 0 0 1
    outer loop
      vertex -2.16312 6.6574 14
      vertex -2.16312 -6.6574 14
      vertex -1.74083 -6.78008 14
    endloop
  endfacet
  facet normal -0 0 1
    outer loop
      vertex -2.57687 6.50844 14
      vertex -2.16312 -6.6574 14
      vertex -2.16312 6.6574 14
    endloop
  endfacet
  facet normal 0 0 1
    outer loop
      vertex -2.57687 6.50844 14
      vertex -2.57687 -6.50844 14
      vertex -2.16312 -6.6574 14
    endloop
  endfacet
  facet normal -0 0 1
    outer loop
      vertex -2.98046 6.33379 14
      vertex -2.57687 -6.50844 14
      vertex -2.57687 6.50844 14
    endloop
  endfacet
  facet normal 0 0 1
    outer loop
      vertex -2.98046 6.33379 14
      vertex -2.98046 -6.33379 14
      vertex -2.57687 -6.50844 14
    endloop
  endfacet
  facet normal -0 0 1
    outer loop
      vertex -3.37228 6.13415 14
      vertex -2.98046 -6.33379 14
      vertex -2.98046 6.33379 14
    endloop
  endfacet
  facet normal 0 0 1
    outer loop
      vertex -3.37228 6.13415 14
      vertex -3.37228 -6.13415 14
      vertex -2.98046 -6.33379 14
    endloop
  endfacet
  facet normal -0 0 1
    outer loop
      vertex -3.75079 5.9103 14
      vertex -3.37228 -6.13415 14
      vertex -3.37228 6.13415 14
    endloop
  endfacet
  facet normal 0 0 1
    outer loop
      vertex -3.75079 5.9103 14
      vertex -3.75079 -5.9103 14
      vertex -3.37228 -6.13415 14
    endloop
  endfacet
  facet normal -0 0 1
    outer loop
      vertex -4.1145 5.66312 14
      vertex -3.75079 -5.9103 14
      vertex -3.75079 5.9103 14
    endloop
  endfacet
  facet normal 0 0 1
    outer loop
      vertex -4.1145 5.66312 14
      vertex -4.1145 -5.66312 14
      vertex -3.75079 -5.9103 14
    endloop
  endfacet
  facet normal -0 0 1
    outer loop
      vertex -4.46197 5.39359 14
      vertex -4.1145 -5.66312 14
      vertex -4.1145 5.66312 14
    endloop
  endfacet
  facet normal 0 0 1
    outer loop
      vertex -4.46197 5.39359 14
      vertex -4.46197 -5.39359 14
      vertex -4.1145 -5.66312 14
    endloop
  endfacet
  facet normal -0 0 1
    outer loop
      vertex -4.79183 5.10278 14
      vertex -4.46197 -5.39359 14
      vertex -4.46197 5.39359 14
    endloop
  endfacet
  facet normal 0 0 1
    outer loop
      vertex -4.79183 5.10278 14
      vertex -4.79183 -5.10278 14
      vertex -4.46197 -5.39359 14
    endloop
  endfacet
  facet normal -0 0 1
    outer loop
      vertex -5.10278 4.79183 14
      vertex -4.79183 -5.10278 14
      vertex -4.79183 5.10278 14
    endloop
  endfacet
  facet normal 0 0 1
    outer loop
      vertex -5.10278 4.79183 14
      vertex -5.10278 -4.79183 14
      vertex -4.79183 -5.10278 14
    endloop
  endfacet
  facet normal -0 0 1
    outer loop
      vertex -5.39359 4.46197 14
      vertex -5.10278 -4.79183 14
      vertex -5.10278 4.79183 14
    endloop
  endfacet
  facet normal 0 0 1
    outer loop
      vertex -5.39359 4.46197 14
      vertex -5.39359 -4.46197 14
      vertex -5.10278 -4.79183 14
    endloop
  endfacet
  facet normal -0 0 1
    outer loop
      vertex -5.66312 4.1145 14
      vertex -5.39359 -4.46197 14
      vertex -5.39359 4.46197 14
    endloop
  endfacet
  facet normal 0 0 1
    outer loop
      vertex -5.66312 4.1145 14
      vertex -5.66312 -4.1145 14
      vertex -5.39359 -4.46197 14
    endloop
  endfacet
  facet normal -0 0 1
    outer loop
      vertex -5.9103 3.75079 14
      vertex -5.66312 -4.1145 14
      vertex -5.66312 4.1145 14
    endloop
  endfacet
  facet normal 0 0 1
    outer loop
      vertex -5.9103 3.75079 14
      vertex -5.9103 -3.75079 14
      vertex -5.66312 -4.1145 14
    endloop
  endfacet
  facet normal -0 0 1
    outer loop
      vertex -6.13415 3.37228 14
      vertex -5.9103 -3.75079 14
      vertex -5.9103 3.75079 14
    endloop
  endfacet
  facet normal 0 0 1
    outer loop
      vertex -6.13415 3.37228 14
      vertex -6.13415 -3.37228 14
      vertex -5.9103 -3.75079 14
    endloop
  endfacet
  facet normal -0 0 1
    outer loop
      vertex -6.33379 2.98046 14
      vertex -6.13415 -3.37228 14
      vertex -6.13415 3.37228 14
    endloop
  endfacet
  facet normal 0 0 1
    outer loop
      vertex -6.33379 2.98046 14
      vertex -6.33379 -2.98046 14
      vertex -6.13415 -3.37228 14
    endloop
  endfacet
  facet normal -0 0 1
    outer loop
      vertex -6.50844 2.57687 14
      vertex -6.33379 -2.98046 14
      vertex -6.33379 2.98046 14
    endloop
  endfacet
  facet normal 0 0 1
    outer loop
      vertex -6.50844 2.57687 14
      vertex -6.50844 -2.57687 14
      vertex -6.33379 -2.98046 14
    endloop
  endfacet
  facet normal -0 0 1
    outer loop
      vertex -6.6574 2.16312 14
      vertex -6.50844 -2.57687 14
      vertex -6.50844 2.57687 14
    endloop
  endfacet
  facet normal 0 0 1
    outer loop
      vertex -6.6574 2.16312 14
      vertex -6.6574 -2.16312 14
      vertex -6.50844 -2.57687 14
    endloop
  endfacet
  facet normal -0 0 1
    outer loop
      vertex -6.78008 1.74083 14
      vertex -6.6574 -2.16312 14
      vertex -6.6574 2.16312 14
    endloop
  endfacet
  facet normal 0 0 1
    outer loop
      vertex -6.78008 1.74083 14
      vertex -6.78008 -1.74083 14
      vertex -6.6574 -2.16312 14
    endloop
  endfacet
  facet normal -0 0 1
    outer loop
      vertex -6.87601 1.31167 14
      vertex -6.78008 -1.74083 14
      vertex -6.78008 1.74083 14
    endloop
  endfacet
  facet normal 0 0 1
    outer loop
      vertex -6.87601 1.31167 14
      vertex -6.87601 -1.31167 14
      vertex -6.78008 -1.74083 14
    endloop
  endfacet
  facet normal -0 0 1
    outer loop
      vertex -6.9448 0.877333 14
      vertex -6.87601 -1.31167 14
      vertex -6.87601 1.31167 14
    endloop
  endfacet
  facet normal 0 0 1
    outer loop
      vertex -6.9448 0.877333 14
      vertex -6.9448 -0.877333 14
      vertex -6.87601 -1.31167 14
    endloop
  endfacet
  facet normal -0 0 1
    outer loop
      vertex -6.98619 0.439534 14
      vertex -6.9448 -0.877333 14
      vertex -6.9448 0.877333 14
    endloop
  endfacet
  facet normal 0 0 1
    outer loop
      vertex -6.98619 0.439534 14
      vertex -6.98619 -0.439534 14
      vertex -6.9448 -0.877333 14
    endloop
  endfacet
  facet normal 0 -0 1
    outer loop
      vertex -6.98619 -0.439534 14
      vertex -6.98619 0.439534 14
      vertex -7 -0 14
    endloop
  endfacet
endsolid OpenSCAD_Model
